solid OpenSCAD_Model
  facet normal 1 0 0
    outer loop
      vertex 32 10.95 9.51
      vertex 32 8.8 9.51
      vertex 32 10.95 2.61
    endloop
  endfacet
  facet normal 1 0 0
    outer loop
      vertex 32 17.85 2.61
      vertex 32 20 9.51
      vertex 32 17.85 9.51
    endloop
  endfacet
  facet normal 1 0 0
    outer loop
      vertex 32 20 9.51
      vertex 32 17.85 2.61
      vertex 32 20 0.0100008
    endloop
  endfacet
  facet normal 1 -0 0
    outer loop
      vertex 32 10.95 2.61
      vertex 32 20 0.0100008
      vertex 32 17.85 2.61
    endloop
  endfacet
  facet normal 1 0 0
    outer loop
      vertex 32 10.95 2.61
      vertex 32 8.8 0.0100008
      vertex 32 20 0.0100008
    endloop
  endfacet
  facet normal 1 0 0
    outer loop
      vertex 32 8.8 0.0100008
      vertex 32 10.95 2.61
      vertex 32 8.8 9.51
    endloop
  endfacet
  facet normal 0 1 -0
    outer loop
      vertex 32 20 0.0100008
      vertex 0 20 9.51
      vertex 32 20 9.51
    endloop
  endfacet
  facet normal 0 1 0
    outer loop
      vertex 0 20 9.51
      vertex 32 20 0.0100008
      vertex 0 20 0.0100008
    endloop
  endfacet
  facet normal 0 -1 0
    outer loop
      vertex 0 8.8 9.51
      vertex 26 8.8 6.46
      vertex 26 8.8 9.51
    endloop
  endfacet
  facet normal 0 -1 0
    outer loop
      vertex 32 8.8 0.0100008
      vertex 26 8.8 6.46
      vertex 0 8.8 0.0100008
    endloop
  endfacet
  facet normal 0 -1 0
    outer loop
      vertex 0 8.8 0.0100008
      vertex 26 8.8 6.46
      vertex 0 8.8 9.51
    endloop
  endfacet
  facet normal 0 -1 0
    outer loop
      vertex 28.6 8.8 6.46
      vertex 32 8.8 9.51
      vertex 28.6 8.8 9.51
    endloop
  endfacet
  facet normal 0 -1 0
    outer loop
      vertex 28.6 8.8 6.46
      vertex 32 8.8 0.0100008
      vertex 32 8.8 9.51
    endloop
  endfacet
  facet normal 0 -1 0
    outer loop
      vertex 26 8.8 6.46
      vertex 32 8.8 0.0100008
      vertex 28.6 8.8 6.46
    endloop
  endfacet
  facet normal -1 0 0
    outer loop
      vertex 0 20 0.0100008
      vertex 0 17.85 2.61
      vertex 0 20 9.51
    endloop
  endfacet
  facet normal -1 0 0
    outer loop
      vertex 0 20 0.0100008
      vertex 0 10.95 2.61
      vertex 0 17.85 2.61
    endloop
  endfacet
  facet normal -1 0 0
    outer loop
      vertex 0 8.8 0.0100008
      vertex 0 10.95 2.61
      vertex 0 20 0.0100008
    endloop
  endfacet
  facet normal -1 0 0
    outer loop
      vertex 0 8.8 9.51
      vertex 0 10.95 2.61
      vertex 0 8.8 0.0100008
    endloop
  endfacet
  facet normal -1 0 0
    outer loop
      vertex 0 10.95 2.61
      vertex 0 8.8 9.51
      vertex 0 10.95 9.51
    endloop
  endfacet
  facet normal -1 -0 0
    outer loop
      vertex 0 20 9.51
      vertex 0 17.85 2.61
      vertex 0 17.85 9.51
    endloop
  endfacet
  facet normal 0 0 -1
    outer loop
      vertex 32 8.8 0.0100008
      vertex 17.4 14.4 0.0100008
      vertex 32 20 0.0100008
    endloop
  endfacet
  facet normal 0 0 -1
    outer loop
      vertex 32 8.8 0.0100008
      vertex 17.3649 14.0885 0.0100008
      vertex 17.4 14.4 0.0100008
    endloop
  endfacet
  facet normal 0 0 -1
    outer loop
      vertex 32 8.8 0.0100008
      vertex 17.2614 13.7926 0.0100008
      vertex 17.3649 14.0885 0.0100008
    endloop
  endfacet
  facet normal 0 0 -1
    outer loop
      vertex 32 8.8 0.0100008
      vertex 17.0946 13.5271 0.0100008
      vertex 17.2614 13.7926 0.0100008
    endloop
  endfacet
  facet normal 0 0 -1
    outer loop
      vertex 32 8.8 0.0100008
      vertex 16.8729 13.3054 0.0100008
      vertex 17.0946 13.5271 0.0100008
    endloop
  endfacet
  facet normal 0 0 -1
    outer loop
      vertex 32 8.8 0.0100008
      vertex 16.6074 13.1386 0.0100008
      vertex 16.8729 13.3054 0.0100008
    endloop
  endfacet
  facet normal 0 0 -1
    outer loop
      vertex 32 8.8 0.0100008
      vertex 16.3115 13.0351 0.0100008
      vertex 16.6074 13.1386 0.0100008
    endloop
  endfacet
  facet normal 0 0 -1
    outer loop
      vertex 32 8.8 0.0100008
      vertex 16 13 0.0100008
      vertex 16.3115 13.0351 0.0100008
    endloop
  endfacet
  facet normal 0 0 -1
    outer loop
      vertex 0 8.8 0.0100008
      vertex 16 13 0.0100008
      vertex 32 8.8 0.0100008
    endloop
  endfacet
  facet normal -0 0 -1
    outer loop
      vertex 14.6351 14.0885 0.0100008
      vertex 0 8.8 0.0100008
      vertex 14.6 14.4 0.0100008
    endloop
  endfacet
  facet normal -0 0 -1
    outer loop
      vertex 14.7386 13.7926 0.0100008
      vertex 0 8.8 0.0100008
      vertex 14.6351 14.0885 0.0100008
    endloop
  endfacet
  facet normal -0 0 -1
    outer loop
      vertex 14.9054 13.5271 0.0100008
      vertex 0 8.8 0.0100008
      vertex 14.7386 13.7926 0.0100008
    endloop
  endfacet
  facet normal -0 0 -1
    outer loop
      vertex 15.1271 13.3054 0.0100008
      vertex 0 8.8 0.0100008
      vertex 14.9054 13.5271 0.0100008
    endloop
  endfacet
  facet normal -0 0 -1
    outer loop
      vertex 15.3926 13.1386 0.0100008
      vertex 0 8.8 0.0100008
      vertex 15.1271 13.3054 0.0100008
    endloop
  endfacet
  facet normal -0 0 -1
    outer loop
      vertex 15.6885 13.0351 0.0100008
      vertex 0 8.8 0.0100008
      vertex 15.3926 13.1386 0.0100008
    endloop
  endfacet
  facet normal -0 0 -1
    outer loop
      vertex 16 13 0.0100008
      vertex 0 8.8 0.0100008
      vertex 15.6885 13.0351 0.0100008
    endloop
  endfacet
  facet normal 0 0 -1
    outer loop
      vertex 17.3649 14.7115 0.0100008
      vertex 32 20 0.0100008
      vertex 17.4 14.4 0.0100008
    endloop
  endfacet
  facet normal 0 0 -1
    outer loop
      vertex 17.2614 15.0074 0.0100008
      vertex 32 20 0.0100008
      vertex 17.3649 14.7115 0.0100008
    endloop
  endfacet
  facet normal 0 0 -1
    outer loop
      vertex 17.0946 15.2729 0.0100008
      vertex 32 20 0.0100008
      vertex 17.2614 15.0074 0.0100008
    endloop
  endfacet
  facet normal 0 0 -1
    outer loop
      vertex 16.8729 15.4946 0.0100008
      vertex 32 20 0.0100008
      vertex 17.0946 15.2729 0.0100008
    endloop
  endfacet
  facet normal 0 0 -1
    outer loop
      vertex 16.6074 15.6614 0.0100008
      vertex 32 20 0.0100008
      vertex 16.8729 15.4946 0.0100008
    endloop
  endfacet
  facet normal 0 0 -1
    outer loop
      vertex 16.3115 15.7649 0.0100008
      vertex 32 20 0.0100008
      vertex 16.6074 15.6614 0.0100008
    endloop
  endfacet
  facet normal 0 0 -1
    outer loop
      vertex 16 15.8 0.0100008
      vertex 32 20 0.0100008
      vertex 16.3115 15.7649 0.0100008
    endloop
  endfacet
  facet normal 0 0 -1
    outer loop
      vertex 0 20 0.0100008
      vertex 16 15.8 0.0100008
      vertex 15.6885 15.7649 0.0100008
    endloop
  endfacet
  facet normal 0 0 -1
    outer loop
      vertex 0 20 0.0100008
      vertex 14.6 14.4 0.0100008
      vertex 0 8.8 0.0100008
    endloop
  endfacet
  facet normal 0 0 -1
    outer loop
      vertex 14.6 14.4 0.0100008
      vertex 0 20 0.0100008
      vertex 14.6351 14.7115 0.0100008
    endloop
  endfacet
  facet normal 0 0 -1
    outer loop
      vertex 14.6351 14.7115 0.0100008
      vertex 0 20 0.0100008
      vertex 14.7386 15.0074 0.0100008
    endloop
  endfacet
  facet normal 0 0 -1
    outer loop
      vertex 14.7386 15.0074 0.0100008
      vertex 0 20 0.0100008
      vertex 14.9054 15.2729 0.0100008
    endloop
  endfacet
  facet normal 0 0 -1
    outer loop
      vertex 14.9054 15.2729 0.0100008
      vertex 0 20 0.0100008
      vertex 15.1271 15.4946 0.0100008
    endloop
  endfacet
  facet normal 0 0 -1
    outer loop
      vertex 16 15.8 0.0100008
      vertex 0 20 0.0100008
      vertex 32 20 0.0100008
    endloop
  endfacet
  facet normal 0 0 -1
    outer loop
      vertex 15.3926 15.6614 0.0100008
      vertex 0 20 0.0100008
      vertex 15.6885 15.7649 0.0100008
    endloop
  endfacet
  facet normal 0 0 -1
    outer loop
      vertex 15.1271 15.4946 0.0100008
      vertex 0 20 0.0100008
      vertex 15.3926 15.6614 0.0100008
    endloop
  endfacet
  facet normal -0 0 1
    outer loop
      vertex 0 20 9.51
      vertex 32 17.85 9.51
      vertex 32 20 9.51
    endloop
  endfacet
  facet normal 0 0 1
    outer loop
      vertex 32 17.85 9.51
      vertex 0 20 9.51
      vertex 0 17.85 9.51
    endloop
  endfacet
  facet normal -0 0 1
    outer loop
      vertex 28.6 10.95 9.51
      vertex 32 8.8 9.51
      vertex 32 10.95 9.51
    endloop
  endfacet
  facet normal 0 0 1
    outer loop
      vertex 32 8.8 9.51
      vertex 28.6 10.95 9.51
      vertex 28.6 8.8 9.51
    endloop
  endfacet
  facet normal -0 0 1
    outer loop
      vertex 0 10.95 9.51
      vertex 26 8.8 9.51
      vertex 26 10.95 9.51
    endloop
  endfacet
  facet normal 0 0 1
    outer loop
      vertex 26 8.8 9.51
      vertex 0 10.95 9.51
      vertex 0 8.8 9.51
    endloop
  endfacet
  facet normal 1 0 0
    outer loop
      vertex 28.6 11.4 21.06
      vertex 28.6 10.95 10.51
      vertex 28.6 11.4 10.51
    endloop
  endfacet
  facet normal 1 0 0
    outer loop
      vertex 28.6 10.95 10.51
      vertex 28.6 8.8 9.51
      vertex 28.6 10.95 9.51
    endloop
  endfacet
  facet normal 1 0 0
    outer loop
      vertex 28.6 11.4 21.06
      vertex 28.6 8.8 9.51
      vertex 28.6 10.95 10.51
    endloop
  endfacet
  facet normal 1 -0 0
    outer loop
      vertex 28.6 0.6 21.06
      vertex 28.6 8.8 9.51
      vertex 28.6 11.4 21.06
    endloop
  endfacet
  facet normal 1 0 0
    outer loop
      vertex 28.6 0.6 6.46
      vertex 28.6 8.8 9.51
      vertex 28.6 0.6 21.06
    endloop
  endfacet
  facet normal 1 0 0
    outer loop
      vertex 28.6 8.8 9.51
      vertex 28.6 0.6 6.46
      vertex 28.6 8.8 6.46
    endloop
  endfacet
  facet normal 0 1 -0
    outer loop
      vertex 28.6 11.4 10.51
      vertex 26 11.4 21.06
      vertex 28.6 11.4 21.06
    endloop
  endfacet
  facet normal 0 1 0
    outer loop
      vertex 26 11.4 21.06
      vertex 28.6 11.4 10.51
      vertex 26 11.4 10.51
    endloop
  endfacet
  facet normal 0 -1 0
    outer loop
      vertex 26 0.6 6.46
      vertex 28.6 0.6 21.06
      vertex 26 0.6 21.06
    endloop
  endfacet
  facet normal 0 -1 -0
    outer loop
      vertex 28.6 0.6 21.06
      vertex 26 0.6 6.46
      vertex 28.6 0.6 6.46
    endloop
  endfacet
  facet normal -1 0 0
    outer loop
      vertex 26 8.8 6.46
      vertex 26 0.6 6.46
      vertex 26 8.8 9.51
    endloop
  endfacet
  facet normal -1 0 0
    outer loop
      vertex 26 10.95 9.51
      vertex 26 8.8 9.51
      vertex 26 10.95 10.51
    endloop
  endfacet
  facet normal -1 0 0
    outer loop
      vertex 26 10.95 10.51
      vertex 26 11.4 21.06
      vertex 26 11.4 10.51
    endloop
  endfacet
  facet normal -1 0 0
    outer loop
      vertex 26 8.8 9.51
      vertex 26 11.4 21.06
      vertex 26 10.95 10.51
    endloop
  endfacet
  facet normal -1 0 0
    outer loop
      vertex 26 0.6 21.06
      vertex 26 8.8 9.51
      vertex 26 0.6 6.46
    endloop
  endfacet
  facet normal -1 0 0
    outer loop
      vertex 26 8.8 9.51
      vertex 26 0.6 21.06
      vertex 26 11.4 21.06
    endloop
  endfacet
  facet normal 0 0 -1
    outer loop
      vertex 26 0.6 6.46
      vertex 28.6 8.8 6.46
      vertex 28.6 0.6 6.46
    endloop
  endfacet
  facet normal -0 0 -1
    outer loop
      vertex 28.6 8.8 6.46
      vertex 26 0.6 6.46
      vertex 26 8.8 6.46
    endloop
  endfacet
  facet normal -0 0 1
    outer loop
      vertex 26 11.4 21.06
      vertex 28.6 0.6 21.06
      vertex 28.6 11.4 21.06
    endloop
  endfacet
  facet normal 0 0 1
    outer loop
      vertex 28.6 0.6 21.06
      vertex 26 11.4 21.06
      vertex 26 0.6 21.06
    endloop
  endfacet
  facet normal 0 -1 0
    outer loop
      vertex 0 17.85 2.61
      vertex 32 17.85 9.51
      vertex 0 17.85 9.51
    endloop
  endfacet
  facet normal 0 -1 -0
    outer loop
      vertex 32 17.85 9.51
      vertex 0 17.85 2.61
      vertex 32 17.85 2.61
    endloop
  endfacet
  facet normal 0 1 -0
    outer loop
      vertex 32 10.95 2.61
      vertex 28.6 10.95 9.51
      vertex 32 10.95 9.51
    endloop
  endfacet
  facet normal 0 1 0
    outer loop
      vertex 28.6 10.95 9.51
      vertex 32 10.95 2.61
      vertex 26 10.95 9.51
    endloop
  endfacet
  facet normal 0 1 0
    outer loop
      vertex 0 10.95 2.61
      vertex 26 10.95 9.51
      vertex 32 10.95 2.61
    endloop
  endfacet
  facet normal 0 1 0
    outer loop
      vertex 26 10.95 9.51
      vertex 0 10.95 2.61
      vertex 0 10.95 9.51
    endloop
  endfacet
  facet normal 0 1 -0
    outer loop
      vertex 28.6 10.95 9.51
      vertex 26 10.95 10.51
      vertex 28.6 10.95 10.51
    endloop
  endfacet
  facet normal 0 1 0
    outer loop
      vertex 26 10.95 10.51
      vertex 28.6 10.95 9.51
      vertex 26 10.95 9.51
    endloop
  endfacet
  facet normal 0 0 1
    outer loop
      vertex 32 17.85 2.61
      vertex 17.4 14.4 2.61
      vertex 32 10.95 2.61
    endloop
  endfacet
  facet normal 0 0 1
    outer loop
      vertex 32 17.85 2.61
      vertex 17.3649 14.7115 2.61
      vertex 17.4 14.4 2.61
    endloop
  endfacet
  facet normal 0 0 1
    outer loop
      vertex 32 17.85 2.61
      vertex 17.2614 15.0074 2.61
      vertex 17.3649 14.7115 2.61
    endloop
  endfacet
  facet normal 0 0 1
    outer loop
      vertex 32 17.85 2.61
      vertex 17.0946 15.2729 2.61
      vertex 17.2614 15.0074 2.61
    endloop
  endfacet
  facet normal 0 0 1
    outer loop
      vertex 32 17.85 2.61
      vertex 16.8729 15.4946 2.61
      vertex 17.0946 15.2729 2.61
    endloop
  endfacet
  facet normal 0 0 1
    outer loop
      vertex 32 17.85 2.61
      vertex 16.6074 15.6614 2.61
      vertex 16.8729 15.4946 2.61
    endloop
  endfacet
  facet normal 0 0 1
    outer loop
      vertex 32 17.85 2.61
      vertex 16.3115 15.7649 2.61
      vertex 16.6074 15.6614 2.61
    endloop
  endfacet
  facet normal 0 0 1
    outer loop
      vertex 32 17.85 2.61
      vertex 16 15.8 2.61
      vertex 16.3115 15.7649 2.61
    endloop
  endfacet
  facet normal -0 0 1
    outer loop
      vertex 0 17.85 2.61
      vertex 16 15.8 2.61
      vertex 32 17.85 2.61
    endloop
  endfacet
  facet normal 0 0 1
    outer loop
      vertex 14.6351 14.7115 2.61
      vertex 0 17.85 2.61
      vertex 14.6 14.4 2.61
    endloop
  endfacet
  facet normal 0 0 1
    outer loop
      vertex 14.7386 15.0074 2.61
      vertex 0 17.85 2.61
      vertex 14.6351 14.7115 2.61
    endloop
  endfacet
  facet normal 0 0 1
    outer loop
      vertex 14.9054 15.2729 2.61
      vertex 0 17.85 2.61
      vertex 14.7386 15.0074 2.61
    endloop
  endfacet
  facet normal 0 0 1
    outer loop
      vertex 15.1271 15.4946 2.61
      vertex 0 17.85 2.61
      vertex 14.9054 15.2729 2.61
    endloop
  endfacet
  facet normal 0 0 1
    outer loop
      vertex 15.3926 15.6614 2.61
      vertex 0 17.85 2.61
      vertex 15.1271 15.4946 2.61
    endloop
  endfacet
  facet normal 0 0 1
    outer loop
      vertex 15.6885 15.7649 2.61
      vertex 0 17.85 2.61
      vertex 15.3926 15.6614 2.61
    endloop
  endfacet
  facet normal 0 0 1
    outer loop
      vertex 16 15.8 2.61
      vertex 0 17.85 2.61
      vertex 15.6885 15.7649 2.61
    endloop
  endfacet
  facet normal -0 0 1
    outer loop
      vertex 17.3649 14.0885 2.61
      vertex 32 10.95 2.61
      vertex 17.4 14.4 2.61
    endloop
  endfacet
  facet normal -0 0 1
    outer loop
      vertex 17.2614 13.7926 2.61
      vertex 32 10.95 2.61
      vertex 17.3649 14.0885 2.61
    endloop
  endfacet
  facet normal -0 0 1
    outer loop
      vertex 17.0946 13.5271 2.61
      vertex 32 10.95 2.61
      vertex 17.2614 13.7926 2.61
    endloop
  endfacet
  facet normal -0 0 1
    outer loop
      vertex 16.8729 13.3054 2.61
      vertex 32 10.95 2.61
      vertex 17.0946 13.5271 2.61
    endloop
  endfacet
  facet normal -0 0 1
    outer loop
      vertex 16.6074 13.1386 2.61
      vertex 32 10.95 2.61
      vertex 16.8729 13.3054 2.61
    endloop
  endfacet
  facet normal -0 0 1
    outer loop
      vertex 16.3115 13.0351 2.61
      vertex 32 10.95 2.61
      vertex 16.6074 13.1386 2.61
    endloop
  endfacet
  facet normal -0 0 1
    outer loop
      vertex 16 13 2.61
      vertex 32 10.95 2.61
      vertex 16.3115 13.0351 2.61
    endloop
  endfacet
  facet normal 0 0 1
    outer loop
      vertex 0 10.95 2.61
      vertex 16 13 2.61
      vertex 15.6885 13.0351 2.61
    endloop
  endfacet
  facet normal 0 0 1
    outer loop
      vertex 0 10.95 2.61
      vertex 14.6 14.4 2.61
      vertex 0 17.85 2.61
    endloop
  endfacet
  facet normal 0 0 1
    outer loop
      vertex 14.6 14.4 2.61
      vertex 0 10.95 2.61
      vertex 14.6351 14.0885 2.61
    endloop
  endfacet
  facet normal 0 0 1
    outer loop
      vertex 14.6351 14.0885 2.61
      vertex 0 10.95 2.61
      vertex 14.7386 13.7926 2.61
    endloop
  endfacet
  facet normal 0 0 1
    outer loop
      vertex 14.7386 13.7926 2.61
      vertex 0 10.95 2.61
      vertex 14.9054 13.5271 2.61
    endloop
  endfacet
  facet normal 0 0 1
    outer loop
      vertex 14.9054 13.5271 2.61
      vertex 0 10.95 2.61
      vertex 15.1271 13.3054 2.61
    endloop
  endfacet
  facet normal 0 0 1
    outer loop
      vertex 15.1271 13.3054 2.61
      vertex 0 10.95 2.61
      vertex 15.3926 13.1386 2.61
    endloop
  endfacet
  facet normal 0 0 1
    outer loop
      vertex 16 13 2.61
      vertex 0 10.95 2.61
      vertex 32 10.95 2.61
    endloop
  endfacet
  facet normal 0 0 1
    outer loop
      vertex 15.3926 13.1386 2.61
      vertex 0 10.95 2.61
      vertex 15.6885 13.0351 2.61
    endloop
  endfacet
  facet normal 0 0 -1
    outer loop
      vertex 26 10.95 10.51
      vertex 28.6 11.4 10.51
      vertex 28.6 10.95 10.51
    endloop
  endfacet
  facet normal -0 0 -1
    outer loop
      vertex 28.6 11.4 10.51
      vertex 26 10.95 10.51
      vertex 26 11.4 10.51
    endloop
  endfacet
  facet normal -0.943923 0.330166 0
    outer loop
      vertex 17.2614 13.7926 0.0100008
      vertex 17.3649 14.0885 2.61
      vertex 17.3649 14.0885 0.0100008
    endloop
  endfacet
  facet normal -0.943923 0.330166 0
    outer loop
      vertex 17.3649 14.0885 2.61
      vertex 17.2614 13.7926 0.0100008
      vertex 17.2614 13.7926 2.61
    endloop
  endfacet
  facet normal -0.993711 0.111972 0
    outer loop
      vertex 17.3649 14.0885 0.0100008
      vertex 17.4 14.4 2.61
      vertex 17.4 14.4 0.0100008
    endloop
  endfacet
  facet normal -0.993711 0.111972 0
    outer loop
      vertex 17.4 14.4 2.61
      vertex 17.3649 14.0885 0.0100008
      vertex 17.3649 14.0885 2.61
    endloop
  endfacet
  facet normal -0.84676 0.531976 0
    outer loop
      vertex 17.0946 13.5271 0.0100008
      vertex 17.2614 13.7926 2.61
      vertex 17.2614 13.7926 0.0100008
    endloop
  endfacet
  facet normal -0.84676 0.531976 0
    outer loop
      vertex 17.2614 13.7926 2.61
      vertex 17.0946 13.5271 0.0100008
      vertex 17.0946 13.5271 2.61
    endloop
  endfacet
  facet normal 0.993711 -0.111972 0
    outer loop
      vertex 14.6 14.4 2.61
      vertex 14.6351 14.7115 0.0100008
      vertex 14.6351 14.7115 2.61
    endloop
  endfacet
  facet normal 0.993711 -0.111972 0
    outer loop
      vertex 14.6351 14.7115 0.0100008
      vertex 14.6 14.4 2.61
      vertex 14.6 14.4 0.0100008
    endloop
  endfacet
  facet normal 0.531976 0.84676 -0
    outer loop
      vertex 15.3926 13.1386 0.0100008
      vertex 15.1271 13.3054 2.61
      vertex 15.3926 13.1386 2.61
    endloop
  endfacet
  facet normal 0.531976 0.84676 0
    outer loop
      vertex 15.1271 13.3054 2.61
      vertex 15.3926 13.1386 0.0100008
      vertex 15.1271 13.3054 0.0100008
    endloop
  endfacet
  facet normal 0.943923 0.330166 0
    outer loop
      vertex 14.7386 13.7926 2.61
      vertex 14.6351 14.0885 0.0100008
      vertex 14.6351 14.0885 2.61
    endloop
  endfacet
  facet normal 0.943923 0.330166 0
    outer loop
      vertex 14.6351 14.0885 0.0100008
      vertex 14.7386 13.7926 2.61
      vertex 14.7386 13.7926 0.0100008
    endloop
  endfacet
  facet normal -0.707107 0.707107 0
    outer loop
      vertex 16.8729 13.3054 0.0100008
      vertex 17.0946 13.5271 2.61
      vertex 17.0946 13.5271 0.0100008
    endloop
  endfacet
  facet normal -0.707107 0.707107 0
    outer loop
      vertex 17.0946 13.5271 2.61
      vertex 16.8729 13.3054 0.0100008
      vertex 16.8729 13.3054 2.61
    endloop
  endfacet
  facet normal 0.111972 -0.993711 0
    outer loop
      vertex 15.6885 15.7649 0.0100008
      vertex 16 15.8 2.61
      vertex 15.6885 15.7649 2.61
    endloop
  endfacet
  facet normal 0.111972 -0.993711 0
    outer loop
      vertex 16 15.8 2.61
      vertex 15.6885 15.7649 0.0100008
      vertex 16 15.8 0.0100008
    endloop
  endfacet
  facet normal 0.531976 -0.84676 0
    outer loop
      vertex 15.1271 15.4946 0.0100008
      vertex 15.3926 15.6614 2.61
      vertex 15.1271 15.4946 2.61
    endloop
  endfacet
  facet normal 0.531976 -0.84676 0
    outer loop
      vertex 15.3926 15.6614 2.61
      vertex 15.1271 15.4946 0.0100008
      vertex 15.3926 15.6614 0.0100008
    endloop
  endfacet
  facet normal -0.531976 -0.84676 0
    outer loop
      vertex 16.6074 15.6614 0.0100008
      vertex 16.8729 15.4946 2.61
      vertex 16.6074 15.6614 2.61
    endloop
  endfacet
  facet normal -0.531976 -0.84676 -0
    outer loop
      vertex 16.8729 15.4946 2.61
      vertex 16.6074 15.6614 0.0100008
      vertex 16.8729 15.4946 0.0100008
    endloop
  endfacet
  facet normal -0.993711 -0.111972 0
    outer loop
      vertex 17.4 14.4 0.0100008
      vertex 17.3649 14.7115 2.61
      vertex 17.3649 14.7115 0.0100008
    endloop
  endfacet
  facet normal -0.993711 -0.111972 0
    outer loop
      vertex 17.3649 14.7115 2.61
      vertex 17.4 14.4 0.0100008
      vertex 17.4 14.4 2.61
    endloop
  endfacet
  facet normal 0.84676 0.531976 0
    outer loop
      vertex 14.9054 13.5271 2.61
      vertex 14.7386 13.7926 0.0100008
      vertex 14.7386 13.7926 2.61
    endloop
  endfacet
  facet normal 0.84676 0.531976 0
    outer loop
      vertex 14.7386 13.7926 0.0100008
      vertex 14.9054 13.5271 2.61
      vertex 14.9054 13.5271 0.0100008
    endloop
  endfacet
  facet normal 0.707107 0.707107 0
    outer loop
      vertex 15.1271 13.3054 2.61
      vertex 14.9054 13.5271 0.0100008
      vertex 14.9054 13.5271 2.61
    endloop
  endfacet
  facet normal 0.707107 0.707107 0
    outer loop
      vertex 14.9054 13.5271 0.0100008
      vertex 15.1271 13.3054 2.61
      vertex 15.1271 13.3054 0.0100008
    endloop
  endfacet
  facet normal 0.111972 0.993711 -0
    outer loop
      vertex 16 13 0.0100008
      vertex 15.6885 13.0351 2.61
      vertex 16 13 2.61
    endloop
  endfacet
  facet normal 0.111972 0.993711 0
    outer loop
      vertex 15.6885 13.0351 2.61
      vertex 16 13 0.0100008
      vertex 15.6885 13.0351 0.0100008
    endloop
  endfacet
  facet normal -0.330166 0.943923 0
    outer loop
      vertex 16.6074 13.1386 0.0100008
      vertex 16.3115 13.0351 2.61
      vertex 16.6074 13.1386 2.61
    endloop
  endfacet
  facet normal -0.330166 0.943923 0
    outer loop
      vertex 16.3115 13.0351 2.61
      vertex 16.6074 13.1386 0.0100008
      vertex 16.3115 13.0351 0.0100008
    endloop
  endfacet
  facet normal 0.330166 0.943923 -0
    outer loop
      vertex 15.6885 13.0351 0.0100008
      vertex 15.3926 13.1386 2.61
      vertex 15.6885 13.0351 2.61
    endloop
  endfacet
  facet normal 0.330166 0.943923 0
    outer loop
      vertex 15.3926 13.1386 2.61
      vertex 15.6885 13.0351 0.0100008
      vertex 15.3926 13.1386 0.0100008
    endloop
  endfacet
  facet normal 0.707107 -0.707107 0
    outer loop
      vertex 14.9054 15.2729 2.61
      vertex 15.1271 15.4946 0.0100008
      vertex 15.1271 15.4946 2.61
    endloop
  endfacet
  facet normal 0.707107 -0.707107 0
    outer loop
      vertex 15.1271 15.4946 0.0100008
      vertex 14.9054 15.2729 2.61
      vertex 14.9054 15.2729 0.0100008
    endloop
  endfacet
  facet normal -0.330166 -0.943923 0
    outer loop
      vertex 16.3115 15.7649 0.0100008
      vertex 16.6074 15.6614 2.61
      vertex 16.3115 15.7649 2.61
    endloop
  endfacet
  facet normal -0.330166 -0.943923 -0
    outer loop
      vertex 16.6074 15.6614 2.61
      vertex 16.3115 15.7649 0.0100008
      vertex 16.6074 15.6614 0.0100008
    endloop
  endfacet
  facet normal -0.943923 -0.330166 0
    outer loop
      vertex 17.3649 14.7115 0.0100008
      vertex 17.2614 15.0074 2.61
      vertex 17.2614 15.0074 0.0100008
    endloop
  endfacet
  facet normal -0.943923 -0.330166 0
    outer loop
      vertex 17.2614 15.0074 2.61
      vertex 17.3649 14.7115 0.0100008
      vertex 17.3649 14.7115 2.61
    endloop
  endfacet
  facet normal 0.84676 -0.531976 0
    outer loop
      vertex 14.7386 15.0074 2.61
      vertex 14.9054 15.2729 0.0100008
      vertex 14.9054 15.2729 2.61
    endloop
  endfacet
  facet normal 0.84676 -0.531976 0
    outer loop
      vertex 14.9054 15.2729 0.0100008
      vertex 14.7386 15.0074 2.61
      vertex 14.7386 15.0074 0.0100008
    endloop
  endfacet
  facet normal 0.330166 -0.943923 0
    outer loop
      vertex 15.3926 15.6614 0.0100008
      vertex 15.6885 15.7649 2.61
      vertex 15.3926 15.6614 2.61
    endloop
  endfacet
  facet normal 0.330166 -0.943923 0
    outer loop
      vertex 15.6885 15.7649 2.61
      vertex 15.3926 15.6614 0.0100008
      vertex 15.6885 15.7649 0.0100008
    endloop
  endfacet
  facet normal 0.993711 0.111972 0
    outer loop
      vertex 14.6351 14.0885 2.61
      vertex 14.6 14.4 0.0100008
      vertex 14.6 14.4 2.61
    endloop
  endfacet
  facet normal 0.993711 0.111972 0
    outer loop
      vertex 14.6 14.4 0.0100008
      vertex 14.6351 14.0885 2.61
      vertex 14.6351 14.0885 0.0100008
    endloop
  endfacet
  facet normal -0.111972 0.993711 0
    outer loop
      vertex 16.3115 13.0351 0.0100008
      vertex 16 13 2.61
      vertex 16.3115 13.0351 2.61
    endloop
  endfacet
  facet normal -0.111972 0.993711 0
    outer loop
      vertex 16 13 2.61
      vertex 16.3115 13.0351 0.0100008
      vertex 16 13 0.0100008
    endloop
  endfacet
  facet normal 0.943923 -0.330166 0
    outer loop
      vertex 14.6351 14.7115 2.61
      vertex 14.7386 15.0074 0.0100008
      vertex 14.7386 15.0074 2.61
    endloop
  endfacet
  facet normal 0.943923 -0.330166 0
    outer loop
      vertex 14.7386 15.0074 0.0100008
      vertex 14.6351 14.7115 2.61
      vertex 14.6351 14.7115 0.0100008
    endloop
  endfacet
  facet normal -0.531976 0.84676 0
    outer loop
      vertex 16.8729 13.3054 0.0100008
      vertex 16.6074 13.1386 2.61
      vertex 16.8729 13.3054 2.61
    endloop
  endfacet
  facet normal -0.531976 0.84676 0
    outer loop
      vertex 16.6074 13.1386 2.61
      vertex 16.8729 13.3054 0.0100008
      vertex 16.6074 13.1386 0.0100008
    endloop
  endfacet
  facet normal -0.111972 -0.993711 0
    outer loop
      vertex 16 15.8 0.0100008
      vertex 16.3115 15.7649 2.61
      vertex 16 15.8 2.61
    endloop
  endfacet
  facet normal -0.111972 -0.993711 -0
    outer loop
      vertex 16.3115 15.7649 2.61
      vertex 16 15.8 0.0100008
      vertex 16.3115 15.7649 0.0100008
    endloop
  endfacet
  facet normal -0.84676 -0.531976 0
    outer loop
      vertex 17.2614 15.0074 0.0100008
      vertex 17.0946 15.2729 2.61
      vertex 17.0946 15.2729 0.0100008
    endloop
  endfacet
  facet normal -0.84676 -0.531976 0
    outer loop
      vertex 17.0946 15.2729 2.61
      vertex 17.2614 15.0074 0.0100008
      vertex 17.2614 15.0074 2.61
    endloop
  endfacet
  facet normal -0.707107 -0.707107 0
    outer loop
      vertex 17.0946 15.2729 0.0100008
      vertex 16.8729 15.4946 2.61
      vertex 16.8729 15.4946 0.0100008
    endloop
  endfacet
  facet normal -0.707107 -0.707107 0
    outer loop
      vertex 16.8729 15.4946 2.61
      vertex 17.0946 15.2729 0.0100008
      vertex 17.0946 15.2729 2.61
    endloop
  endfacet
endsolid OpenSCAD_Model
