solid OpenSCAD_Model
  facet normal 0 0 -1
    outer loop
      vertex 58.6 22 0
      vertex 62.6 0 0
      vertex 58.6 0 0
    endloop
  endfacet
  facet normal 0 0 -1
    outer loop
      vertex 62.6 0 0
      vertex 58.6 22 0
      vertex 62.6 30 0
    endloop
  endfacet
  facet normal 0 0 -1
    outer loop
      vertex 0 30 0
      vertex 58.6 22 0
      vertex 0 22 0
    endloop
  endfacet
  facet normal 0 0 -1
    outer loop
      vertex 58.6 22 0
      vertex 0 30 0
      vertex 62.6 30 0
    endloop
  endfacet
  facet normal 1 0 0
    outer loop
      vertex 62.6 30 12
      vertex 62.6 13.7 6
      vertex 62.6 30 0
    endloop
  endfacet
  facet normal 1 0 0
    outer loop
      vertex 62.6 30 12
      vertex 62.6 13.6673 6.33165
      vertex 62.6 13.7 6
    endloop
  endfacet
  facet normal 1 0 0
    outer loop
      vertex 62.6 30 12
      vertex 62.6 13.5706 6.65056
      vertex 62.6 13.6673 6.33165
    endloop
  endfacet
  facet normal 1 0 0
    outer loop
      vertex 62.6 30 12
      vertex 62.6 13.4135 6.94447
      vertex 62.6 13.5706 6.65056
    endloop
  endfacet
  facet normal 1 0 0
    outer loop
      vertex 62.6 30 12
      vertex 62.6 13.2021 7.20208
      vertex 62.6 13.4135 6.94447
    endloop
  endfacet
  facet normal 1 0 0
    outer loop
      vertex 62.6 30 12
      vertex 62.6 12.9445 7.4135
      vertex 62.6 13.2021 7.20208
    endloop
  endfacet
  facet normal 1 0 0
    outer loop
      vertex 62.6 30 12
      vertex 62.6 12.6506 7.5706
      vertex 62.6 12.9445 7.4135
    endloop
  endfacet
  facet normal 1 0 0
    outer loop
      vertex 62.6 30 12
      vertex 62.6 12.3317 7.66734
      vertex 62.6 12.6506 7.5706
    endloop
  endfacet
  facet normal 1 0 0
    outer loop
      vertex 62.6 30 12
      vertex 62.6 12 7.7
      vertex 62.6 12.3317 7.66734
    endloop
  endfacet
  facet normal 1 -0 0
    outer loop
      vertex 62.6 0 12
      vertex 62.6 12 7.7
      vertex 62.6 30 12
    endloop
  endfacet
  facet normal 1 0 0
    outer loop
      vertex 62.6 10.3327 6.33165
      vertex 62.6 0 12
      vertex 62.6 10.3 6
    endloop
  endfacet
  facet normal 1 0 0
    outer loop
      vertex 62.6 10.4294 6.65056
      vertex 62.6 0 12
      vertex 62.6 10.3327 6.33165
    endloop
  endfacet
  facet normal 1 0 0
    outer loop
      vertex 62.6 10.5865 6.94447
      vertex 62.6 0 12
      vertex 62.6 10.4294 6.65056
    endloop
  endfacet
  facet normal 1 0 0
    outer loop
      vertex 62.6 10.7979 7.20208
      vertex 62.6 0 12
      vertex 62.6 10.5865 6.94447
    endloop
  endfacet
  facet normal 1 0 0
    outer loop
      vertex 62.6 11.0555 7.4135
      vertex 62.6 0 12
      vertex 62.6 10.7979 7.20208
    endloop
  endfacet
  facet normal 1 0 0
    outer loop
      vertex 62.6 11.3494 7.5706
      vertex 62.6 0 12
      vertex 62.6 11.0555 7.4135
    endloop
  endfacet
  facet normal 1 0 0
    outer loop
      vertex 62.6 11.6683 7.66734
      vertex 62.6 0 12
      vertex 62.6 11.3494 7.5706
    endloop
  endfacet
  facet normal 1 0 0
    outer loop
      vertex 62.6 12 7.7
      vertex 62.6 0 12
      vertex 62.6 11.6683 7.66734
    endloop
  endfacet
  facet normal 1 -0 0
    outer loop
      vertex 62.6 13.6673 5.66835
      vertex 62.6 30 0
      vertex 62.6 13.7 6
    endloop
  endfacet
  facet normal 1 -0 0
    outer loop
      vertex 62.6 13.5706 5.34944
      vertex 62.6 30 0
      vertex 62.6 13.6673 5.66835
    endloop
  endfacet
  facet normal 1 -0 0
    outer loop
      vertex 62.6 13.4135 5.05553
      vertex 62.6 30 0
      vertex 62.6 13.5706 5.34944
    endloop
  endfacet
  facet normal 1 -0 0
    outer loop
      vertex 62.6 13.2021 4.79792
      vertex 62.6 30 0
      vertex 62.6 13.4135 5.05553
    endloop
  endfacet
  facet normal 1 -0 0
    outer loop
      vertex 62.6 12.9445 4.5865
      vertex 62.6 30 0
      vertex 62.6 13.2021 4.79792
    endloop
  endfacet
  facet normal 1 -0 0
    outer loop
      vertex 62.6 12.6506 4.42941
      vertex 62.6 30 0
      vertex 62.6 12.9445 4.5865
    endloop
  endfacet
  facet normal 1 -0 0
    outer loop
      vertex 62.6 12.3317 4.33267
      vertex 62.6 30 0
      vertex 62.6 12.6506 4.42941
    endloop
  endfacet
  facet normal 1 -0 0
    outer loop
      vertex 62.6 12 4.3
      vertex 62.6 30 0
      vertex 62.6 12.3317 4.33267
    endloop
  endfacet
  facet normal 1 0 0
    outer loop
      vertex 62.6 0 0
      vertex 62.6 12 4.3
      vertex 62.6 11.6683 4.33267
    endloop
  endfacet
  facet normal 1 0 0
    outer loop
      vertex 62.6 0 0
      vertex 62.6 10.3 6
      vertex 62.6 0 12
    endloop
  endfacet
  facet normal 1 0 0
    outer loop
      vertex 62.6 10.3 6
      vertex 62.6 0 0
      vertex 62.6 10.3327 5.66835
    endloop
  endfacet
  facet normal 1 0 0
    outer loop
      vertex 62.6 10.3327 5.66835
      vertex 62.6 0 0
      vertex 62.6 10.4294 5.34944
    endloop
  endfacet
  facet normal 1 0 0
    outer loop
      vertex 62.6 10.4294 5.34944
      vertex 62.6 0 0
      vertex 62.6 10.5865 5.05553
    endloop
  endfacet
  facet normal 1 0 0
    outer loop
      vertex 62.6 10.5865 5.05553
      vertex 62.6 0 0
      vertex 62.6 10.7979 4.79792
    endloop
  endfacet
  facet normal 1 0 0
    outer loop
      vertex 62.6 12 4.3
      vertex 62.6 0 0
      vertex 62.6 30 0
    endloop
  endfacet
  facet normal 1 0 0
    outer loop
      vertex 62.6 11.3494 4.42941
      vertex 62.6 0 0
      vertex 62.6 11.6683 4.33267
    endloop
  endfacet
  facet normal 1 0 0
    outer loop
      vertex 62.6 11.0555 4.5865
      vertex 62.6 0 0
      vertex 62.6 11.3494 4.42941
    endloop
  endfacet
  facet normal 1 0 0
    outer loop
      vertex 62.6 10.7979 4.79792
      vertex 62.6 0 0
      vertex 62.6 11.0555 4.5865
    endloop
  endfacet
  facet normal -1 0 0
    outer loop
      vertex 58.6 22 0
      vertex 58.6 13.7 6
      vertex 58.6 22 12
    endloop
  endfacet
  facet normal -1 0 0
    outer loop
      vertex 58.6 22 0
      vertex 58.6 13.6673 5.66835
      vertex 58.6 13.7 6
    endloop
  endfacet
  facet normal -1 0 0
    outer loop
      vertex 58.6 22 0
      vertex 58.6 13.5706 5.34944
      vertex 58.6 13.6673 5.66835
    endloop
  endfacet
  facet normal -1 0 0
    outer loop
      vertex 58.6 22 0
      vertex 58.6 13.4135 5.05553
      vertex 58.6 13.5706 5.34944
    endloop
  endfacet
  facet normal -1 0 0
    outer loop
      vertex 58.6 22 0
      vertex 58.6 13.2021 4.79792
      vertex 58.6 13.4135 5.05553
    endloop
  endfacet
  facet normal -1 0 0
    outer loop
      vertex 58.6 22 0
      vertex 58.6 12.9445 4.5865
      vertex 58.6 13.2021 4.79792
    endloop
  endfacet
  facet normal -1 0 0
    outer loop
      vertex 58.6 22 0
      vertex 58.6 12.6506 4.42941
      vertex 58.6 12.9445 4.5865
    endloop
  endfacet
  facet normal -1 0 0
    outer loop
      vertex 58.6 22 0
      vertex 58.6 12.3317 4.33267
      vertex 58.6 12.6506 4.42941
    endloop
  endfacet
  facet normal -1 0 0
    outer loop
      vertex 58.6 22 0
      vertex 58.6 12 4.3
      vertex 58.6 12.3317 4.33267
    endloop
  endfacet
  facet normal -1 0 0
    outer loop
      vertex 58.6 0 0
      vertex 58.6 12 4.3
      vertex 58.6 22 0
    endloop
  endfacet
  facet normal -1 -0 0
    outer loop
      vertex 58.6 12 4.3
      vertex 58.6 0 0
      vertex 58.6 11.6683 4.33267
    endloop
  endfacet
  facet normal -1 -0 0
    outer loop
      vertex 58.6 10.3327 5.66835
      vertex 58.6 0 0
      vertex 58.6 10.3 6
    endloop
  endfacet
  facet normal -1 -0 0
    outer loop
      vertex 58.6 10.4294 5.34944
      vertex 58.6 0 0
      vertex 58.6 10.3327 5.66835
    endloop
  endfacet
  facet normal -1 -0 0
    outer loop
      vertex 58.6 10.5865 5.05553
      vertex 58.6 0 0
      vertex 58.6 10.4294 5.34944
    endloop
  endfacet
  facet normal -1 -0 0
    outer loop
      vertex 58.6 10.7979 4.79792
      vertex 58.6 0 0
      vertex 58.6 10.5865 5.05553
    endloop
  endfacet
  facet normal -1 -0 0
    outer loop
      vertex 58.6 11.0555 4.5865
      vertex 58.6 0 0
      vertex 58.6 10.7979 4.79792
    endloop
  endfacet
  facet normal -1 -0 0
    outer loop
      vertex 58.6 11.3494 4.42941
      vertex 58.6 0 0
      vertex 58.6 11.0555 4.5865
    endloop
  endfacet
  facet normal -1 -0 0
    outer loop
      vertex 58.6 11.6683 4.33267
      vertex 58.6 0 0
      vertex 58.6 11.3494 4.42941
    endloop
  endfacet
  facet normal -1 0 0
    outer loop
      vertex 58.6 13.6673 6.33165
      vertex 58.6 22 12
      vertex 58.6 13.7 6
    endloop
  endfacet
  facet normal -1 0 0
    outer loop
      vertex 58.6 13.5706 6.65056
      vertex 58.6 22 12
      vertex 58.6 13.6673 6.33165
    endloop
  endfacet
  facet normal -1 0 0
    outer loop
      vertex 58.6 13.4135 6.94447
      vertex 58.6 22 12
      vertex 58.6 13.5706 6.65056
    endloop
  endfacet
  facet normal -1 0 0
    outer loop
      vertex 58.6 13.2021 7.20208
      vertex 58.6 22 12
      vertex 58.6 13.4135 6.94447
    endloop
  endfacet
  facet normal -1 0 0
    outer loop
      vertex 58.6 12.9445 7.4135
      vertex 58.6 22 12
      vertex 58.6 13.2021 7.20208
    endloop
  endfacet
  facet normal -1 0 0
    outer loop
      vertex 58.6 12.6506 7.5706
      vertex 58.6 22 12
      vertex 58.6 12.9445 7.4135
    endloop
  endfacet
  facet normal -1 0 0
    outer loop
      vertex 58.6 12.3317 7.66734
      vertex 58.6 22 12
      vertex 58.6 12.6506 7.5706
    endloop
  endfacet
  facet normal -1 0 0
    outer loop
      vertex 58.6 12 7.7
      vertex 58.6 22 12
      vertex 58.6 12.3317 7.66734
    endloop
  endfacet
  facet normal -1 0 0
    outer loop
      vertex 58.6 0 12
      vertex 58.6 12 7.7
      vertex 58.6 11.6683 7.66734
    endloop
  endfacet
  facet normal -1 0 0
    outer loop
      vertex 58.6 0 12
      vertex 58.6 11.6683 7.66734
      vertex 58.6 11.3494 7.5706
    endloop
  endfacet
  facet normal -1 0 0
    outer loop
      vertex 58.6 0 12
      vertex 58.6 10.3 6
      vertex 58.6 0 0
    endloop
  endfacet
  facet normal -1 0 0
    outer loop
      vertex 58.6 10.3 6
      vertex 58.6 0 12
      vertex 58.6 10.3327 6.33165
    endloop
  endfacet
  facet normal -1 0 0
    outer loop
      vertex 58.6 10.3327 6.33165
      vertex 58.6 0 12
      vertex 58.6 10.4294 6.65056
    endloop
  endfacet
  facet normal -1 0 0
    outer loop
      vertex 58.6 10.4294 6.65056
      vertex 58.6 0 12
      vertex 58.6 10.5865 6.94447
    endloop
  endfacet
  facet normal -1 0 0
    outer loop
      vertex 58.6 10.5865 6.94447
      vertex 58.6 0 12
      vertex 58.6 10.7979 7.20208
    endloop
  endfacet
  facet normal -1 0 0
    outer loop
      vertex 58.6 12 7.7
      vertex 58.6 0 12
      vertex 58.6 22 12
    endloop
  endfacet
  facet normal -1 0 0
    outer loop
      vertex 58.6 11.0555 7.4135
      vertex 58.6 0 12
      vertex 58.6 11.3494 7.5706
    endloop
  endfacet
  facet normal -1 0 0
    outer loop
      vertex 58.6 10.7979 7.20208
      vertex 58.6 0 12
      vertex 58.6 11.0555 7.4135
    endloop
  endfacet
  facet normal 0 0 1
    outer loop
      vertex 62.6 30 12
      vertex 58.6 22 12
      vertex 62.6 0 12
    endloop
  endfacet
  facet normal -0 0 1
    outer loop
      vertex 0 30 12
      vertex 58.6 22 12
      vertex 62.6 30 12
    endloop
  endfacet
  facet normal 0 0 1
    outer loop
      vertex 58.6 22 12
      vertex 0 30 12
      vertex 0 22 12
    endloop
  endfacet
  facet normal 0 0 1
    outer loop
      vertex 62.6 0 12
      vertex 58.6 22 12
      vertex 58.6 0 12
    endloop
  endfacet
  facet normal 0 1 -0
    outer loop
      vertex 62.6 30 0
      vertex 0 30 12
      vertex 62.6 30 12
    endloop
  endfacet
  facet normal 0 1 0
    outer loop
      vertex 0 30 12
      vertex 62.6 30 0
      vertex 0 30 0
    endloop
  endfacet
  facet normal 0 -1 0
    outer loop
      vertex 58.6 0 0
      vertex 62.6 0 12
      vertex 58.6 0 12
    endloop
  endfacet
  facet normal 0 -1 -0
    outer loop
      vertex 62.6 0 12
      vertex 58.6 0 0
      vertex 62.6 0 0
    endloop
  endfacet
  facet normal -1 0 0
    outer loop
      vertex 0 22 0
      vertex 0 30 12
      vertex 0 30 0
    endloop
  endfacet
  facet normal -1 -0 0
    outer loop
      vertex 0 30 12
      vertex 0 22 0
      vertex 0 22 12
    endloop
  endfacet
  facet normal 0 -1 0
    outer loop
      vertex 0 22 0
      vertex 58.6 22 12
      vertex 0 22 12
    endloop
  endfacet
  facet normal 0 -1 -0
    outer loop
      vertex 58.6 22 12
      vertex 0 22 0
      vertex 58.6 22 0
    endloop
  endfacet
  facet normal 0 0.995174 -0.0981221
    outer loop
      vertex 62.6 10.3 6
      vertex 58.6 10.3327 6.33165
      vertex 62.6 10.3327 6.33165
    endloop
  endfacet
  facet normal 0 0.995174 -0.0981221
    outer loop
      vertex 58.6 10.3327 6.33165
      vertex 62.6 10.3 6
      vertex 58.6 10.3 6
    endloop
  endfacet
  facet normal 0 -0.290292 0.956938
    outer loop
      vertex 58.6 12.6506 4.42941
      vertex 62.6 12.3317 4.33267
      vertex 62.6 12.6506 4.42941
    endloop
  endfacet
  facet normal 0 -0.290292 0.956938
    outer loop
      vertex 62.6 12.3317 4.33267
      vertex 58.6 12.6506 4.42941
      vertex 58.6 12.3317 4.33267
    endloop
  endfacet
  facet normal 0 -0.0980183 0.995185
    outer loop
      vertex 58.6 12.3317 4.33267
      vertex 62.6 12 4.3
      vertex 62.6 12.3317 4.33267
    endloop
  endfacet
  facet normal 0 -0.0980183 0.995185
    outer loop
      vertex 62.6 12 4.3
      vertex 58.6 12.3317 4.33267
      vertex 58.6 12 4.3
    endloop
  endfacet
  facet normal 0 -0.47139 0.881925
    outer loop
      vertex 58.6 12.9445 4.5865
      vertex 62.6 12.6506 4.42941
      vertex 62.6 12.9445 4.5865
    endloop
  endfacet
  facet normal 0 -0.47139 0.881925
    outer loop
      vertex 62.6 12.6506 4.42941
      vertex 58.6 12.9445 4.5865
      vertex 58.6 12.6506 4.42941
    endloop
  endfacet
  facet normal -0 0.634417 0.772991
    outer loop
      vertex 58.6 11.0555 4.5865
      vertex 62.6 10.7979 4.79792
      vertex 62.6 11.0555 4.5865
    endloop
  endfacet
  facet normal 0 0.634417 0.772991
    outer loop
      vertex 62.6 10.7979 4.79792
      vertex 58.6 11.0555 4.5865
      vertex 58.6 10.7979 4.79792
    endloop
  endfacet
  facet normal 0 -0.956974 -0.290174
    outer loop
      vertex 58.6 13.6673 6.33165
      vertex 62.6 13.5706 6.65056
      vertex 58.6 13.5706 6.65056
    endloop
  endfacet
  facet normal 0 -0.956974 -0.290174
    outer loop
      vertex 62.6 13.5706 6.65056
      vertex 58.6 13.6673 6.33165
      vertex 62.6 13.6673 6.33165
    endloop
  endfacet
  facet normal 0 -0.956974 0.290174
    outer loop
      vertex 58.6 13.5706 5.34944
      vertex 62.6 13.6673 5.66835
      vertex 58.6 13.6673 5.66835
    endloop
  endfacet
  facet normal 0 -0.956974 0.290174
    outer loop
      vertex 62.6 13.6673 5.66835
      vertex 58.6 13.5706 5.34944
      vertex 62.6 13.5706 5.34944
    endloop
  endfacet
  facet normal -0 0.0980183 0.995185
    outer loop
      vertex 58.6 12 4.3
      vertex 62.6 11.6683 4.33267
      vertex 62.6 12 4.3
    endloop
  endfacet
  facet normal 0 0.0980183 0.995185
    outer loop
      vertex 62.6 11.6683 4.33267
      vertex 58.6 12 4.3
      vertex 58.6 11.6683 4.33267
    endloop
  endfacet
  facet normal 0 0.956974 0.290174
    outer loop
      vertex 62.6 10.4294 5.34944
      vertex 58.6 10.3327 5.66835
      vertex 62.6 10.3327 5.66835
    endloop
  endfacet
  facet normal 0 0.956974 0.290174
    outer loop
      vertex 58.6 10.3327 5.66835
      vertex 62.6 10.4294 5.34944
      vertex 58.6 10.4294 5.34944
    endloop
  endfacet
  facet normal 0 -0.881919 -0.471401
    outer loop
      vertex 58.6 13.5706 6.65056
      vertex 62.6 13.4135 6.94447
      vertex 58.6 13.4135 6.94447
    endloop
  endfacet
  facet normal 0 -0.881919 -0.471401
    outer loop
      vertex 62.6 13.4135 6.94447
      vertex 58.6 13.5706 6.65056
      vertex 62.6 13.5706 6.65056
    endloop
  endfacet
  facet normal 0 -0.773033 -0.634366
    outer loop
      vertex 58.6 13.4135 6.94447
      vertex 62.6 13.2021 7.20208
      vertex 58.6 13.2021 7.20208
    endloop
  endfacet
  facet normal 0 -0.773033 -0.634366
    outer loop
      vertex 62.6 13.2021 7.20208
      vertex 58.6 13.4135 6.94447
      vertex 62.6 13.4135 6.94447
    endloop
  endfacet
  facet normal 0 -0.995174 -0.0981221
    outer loop
      vertex 58.6 13.7 6
      vertex 62.6 13.6673 6.33165
      vertex 58.6 13.6673 6.33165
    endloop
  endfacet
  facet normal 0 -0.995174 -0.0981221
    outer loop
      vertex 62.6 13.6673 6.33165
      vertex 58.6 13.7 6
      vertex 62.6 13.7 6
    endloop
  endfacet
  facet normal 0 -0.634417 -0.772991
    outer loop
      vertex 58.6 12.9445 7.4135
      vertex 62.6 13.2021 7.20208
      vertex 62.6 12.9445 7.4135
    endloop
  endfacet
  facet normal -0 -0.634417 -0.772991
    outer loop
      vertex 62.6 13.2021 7.20208
      vertex 58.6 12.9445 7.4135
      vertex 58.6 13.2021 7.20208
    endloop
  endfacet
  facet normal 0 0.956974 -0.290174
    outer loop
      vertex 62.6 10.3327 6.33165
      vertex 58.6 10.4294 6.65056
      vertex 62.6 10.4294 6.65056
    endloop
  endfacet
  facet normal 0 0.956974 -0.290174
    outer loop
      vertex 58.6 10.4294 6.65056
      vertex 62.6 10.3327 6.33165
      vertex 58.6 10.3327 6.33165
    endloop
  endfacet
  facet normal 0 -0.881919 0.471401
    outer loop
      vertex 58.6 13.4135 5.05553
      vertex 62.6 13.5706 5.34944
      vertex 58.6 13.5706 5.34944
    endloop
  endfacet
  facet normal 0 -0.881919 0.471401
    outer loop
      vertex 62.6 13.5706 5.34944
      vertex 58.6 13.4135 5.05553
      vertex 62.6 13.4135 5.05553
    endloop
  endfacet
  facet normal 0 0.634417 -0.772991
    outer loop
      vertex 58.6 10.7979 7.20208
      vertex 62.6 11.0555 7.4135
      vertex 62.6 10.7979 7.20208
    endloop
  endfacet
  facet normal 0 0.634417 -0.772991
    outer loop
      vertex 62.6 11.0555 7.4135
      vertex 58.6 10.7979 7.20208
      vertex 58.6 11.0555 7.4135
    endloop
  endfacet
  facet normal 0 -0.471413 -0.881912
    outer loop
      vertex 58.6 12.6506 7.5706
      vertex 62.6 12.9445 7.4135
      vertex 62.6 12.6506 7.5706
    endloop
  endfacet
  facet normal -0 -0.471413 -0.881912
    outer loop
      vertex 62.6 12.9445 7.4135
      vertex 58.6 12.6506 7.5706
      vertex 58.6 12.9445 7.4135
    endloop
  endfacet
  facet normal 0 0.0979886 -0.995188
    outer loop
      vertex 58.6 11.6683 7.66734
      vertex 62.6 12 7.7
      vertex 62.6 11.6683 7.66734
    endloop
  endfacet
  facet normal 0 0.0979886 -0.995188
    outer loop
      vertex 62.6 12 7.7
      vertex 58.6 11.6683 7.66734
      vertex 58.6 12 7.7
    endloop
  endfacet
  facet normal 0 -0.290292 -0.956938
    outer loop
      vertex 58.6 12.3317 7.66734
      vertex 62.6 12.6506 7.5706
      vertex 62.6 12.3317 7.66734
    endloop
  endfacet
  facet normal -0 -0.290292 -0.956938
    outer loop
      vertex 62.6 12.6506 7.5706
      vertex 58.6 12.3317 7.66734
      vertex 58.6 12.6506 7.5706
    endloop
  endfacet
  facet normal -0 0.47139 0.881925
    outer loop
      vertex 58.6 11.3494 4.42941
      vertex 62.6 11.0555 4.5865
      vertex 62.6 11.3494 4.42941
    endloop
  endfacet
  facet normal 0 0.47139 0.881925
    outer loop
      vertex 62.6 11.0555 4.5865
      vertex 58.6 11.3494 4.42941
      vertex 58.6 11.0555 4.5865
    endloop
  endfacet
  facet normal 0 0.471413 -0.881912
    outer loop
      vertex 58.6 11.0555 7.4135
      vertex 62.6 11.3494 7.5706
      vertex 62.6 11.0555 7.4135
    endloop
  endfacet
  facet normal 0 0.471413 -0.881912
    outer loop
      vertex 62.6 11.3494 7.5706
      vertex 58.6 11.0555 7.4135
      vertex 58.6 11.3494 7.5706
    endloop
  endfacet
  facet normal 0 -0.634417 0.772991
    outer loop
      vertex 58.6 13.2021 4.79792
      vertex 62.6 12.9445 4.5865
      vertex 62.6 13.2021 4.79792
    endloop
  endfacet
  facet normal 0 -0.634417 0.772991
    outer loop
      vertex 62.6 12.9445 4.5865
      vertex 58.6 13.2021 4.79792
      vertex 58.6 12.9445 4.5865
    endloop
  endfacet
  facet normal 0 0.881919 0.471401
    outer loop
      vertex 62.6 10.5865 5.05553
      vertex 58.6 10.4294 5.34944
      vertex 62.6 10.4294 5.34944
    endloop
  endfacet
  facet normal 0 0.881919 0.471401
    outer loop
      vertex 58.6 10.4294 5.34944
      vertex 62.6 10.5865 5.05553
      vertex 58.6 10.5865 5.05553
    endloop
  endfacet
  facet normal 0 0.773033 -0.634366
    outer loop
      vertex 62.6 10.5865 6.94447
      vertex 58.6 10.7979 7.20208
      vertex 62.6 10.7979 7.20208
    endloop
  endfacet
  facet normal 0 0.773033 -0.634366
    outer loop
      vertex 58.6 10.7979 7.20208
      vertex 62.6 10.5865 6.94447
      vertex 58.6 10.5865 6.94447
    endloop
  endfacet
  facet normal -0 0.290292 0.956938
    outer loop
      vertex 58.6 11.6683 4.33267
      vertex 62.6 11.3494 4.42941
      vertex 62.6 11.6683 4.33267
    endloop
  endfacet
  facet normal 0 0.290292 0.956938
    outer loop
      vertex 62.6 11.3494 4.42941
      vertex 58.6 11.6683 4.33267
      vertex 58.6 11.3494 4.42941
    endloop
  endfacet
  facet normal 0 -0.773033 0.634366
    outer loop
      vertex 58.6 13.2021 4.79792
      vertex 62.6 13.4135 5.05553
      vertex 58.6 13.4135 5.05553
    endloop
  endfacet
  facet normal 0 -0.773033 0.634366
    outer loop
      vertex 62.6 13.4135 5.05553
      vertex 58.6 13.2021 4.79792
      vertex 62.6 13.2021 4.79792
    endloop
  endfacet
  facet normal 0 0.995174 0.0981221
    outer loop
      vertex 62.6 10.3327 5.66835
      vertex 58.6 10.3 6
      vertex 62.6 10.3 6
    endloop
  endfacet
  facet normal 0 0.995174 0.0981221
    outer loop
      vertex 58.6 10.3 6
      vertex 62.6 10.3327 5.66835
      vertex 58.6 10.3327 5.66835
    endloop
  endfacet
  facet normal 0 0.773033 0.634366
    outer loop
      vertex 62.6 10.7979 4.79792
      vertex 58.6 10.5865 5.05553
      vertex 62.6 10.5865 5.05553
    endloop
  endfacet
  facet normal 0 0.773033 0.634366
    outer loop
      vertex 58.6 10.5865 5.05553
      vertex 62.6 10.7979 4.79792
      vertex 58.6 10.7979 4.79792
    endloop
  endfacet
  facet normal 0 0.290292 -0.956938
    outer loop
      vertex 58.6 11.3494 7.5706
      vertex 62.6 11.6683 7.66734
      vertex 62.6 11.3494 7.5706
    endloop
  endfacet
  facet normal 0 0.290292 -0.956938
    outer loop
      vertex 62.6 11.6683 7.66734
      vertex 58.6 11.3494 7.5706
      vertex 58.6 11.6683 7.66734
    endloop
  endfacet
  facet normal 0 -0.995174 0.0981221
    outer loop
      vertex 58.6 13.6673 5.66835
      vertex 62.6 13.7 6
      vertex 58.6 13.7 6
    endloop
  endfacet
  facet normal 0 -0.995174 0.0981221
    outer loop
      vertex 62.6 13.7 6
      vertex 58.6 13.6673 5.66835
      vertex 62.6 13.6673 5.66835
    endloop
  endfacet
  facet normal 0 -0.0979886 -0.995188
    outer loop
      vertex 58.6 12 7.7
      vertex 62.6 12.3317 7.66734
      vertex 62.6 12 7.7
    endloop
  endfacet
  facet normal -0 -0.0979886 -0.995188
    outer loop
      vertex 62.6 12.3317 7.66734
      vertex 58.6 12 7.7
      vertex 58.6 12.3317 7.66734
    endloop
  endfacet
  facet normal 0 0.881919 -0.471401
    outer loop
      vertex 62.6 10.4294 6.65056
      vertex 58.6 10.5865 6.94447
      vertex 62.6 10.5865 6.94447
    endloop
  endfacet
  facet normal 0 0.881919 -0.471401
    outer loop
      vertex 58.6 10.5865 6.94447
      vertex 62.6 10.4294 6.65056
      vertex 58.6 10.4294 6.65056
    endloop
  endfacet
endsolid OpenSCAD_Model
